<?xml version="1.0" encoding="utf-8"?>
<!-- Generator: Adobe Illustrator 27.5.0, SVG Export Plug-In . SVG Version: 6.00 Build 0)  -->
<svg version="1.1" xmlns="http://www.w3.org/2000/svg" xmlns:xlink="http://www.w3.org/1999/xlink" x="0px" y="0px"
	 viewBox="0 0 500 500" style="enable-background:new 0 0 500 500;" xml:space="preserve">
<g id="BACKGROUND">
	<g>
		<rect style="fill:#FFFFFF;" width="500" height="500"/>
	</g>
</g>
<g id="OBJECTS">
	<g>
		<path style="fill:#F4F3FF;" d="M54.603,428.085c1.365,1.304,2.802,2.493,4.273,3.628l373.311-0.813
			c3.979-17.042,14.11-32.317,20.328-48.934c10.533-28.148,11.291-59.831,0.329-87.934c-2.729-6.996-6.136-13.619-10.22-19.615
			c-14.737-21.632-42.523-29.217-57.247-50.63c-11.685-16.995-9.279-38.588-5.181-57.654c4.51-20.985,10.584-43.365,4.706-64.69
			c-4.9-17.781-20.467-31.385-37.4-37.52c-39.072-14.156-84.356-0.083-118.883,19.449c-19.034,10.768-35.843,25.32-56.501,33.151
			c-22.484,8.523-45.614,12.442-69.497,14.605c-8.875,0.804-17.837,1.661-26.295,4.465c-17.641,5.847-28.833,21.45-32.349,39.306
			c-4.081,20.725,0.033,42.599,8.367,61.749c11.401,26.199,35.657,47.176,37.447,77.15c1.125,18.832-9.781,31.307-23.246,42.679
			c-9.74,8.227-21.168,16.541-25.681,28.999C35.295,400.844,43.472,417.451,54.603,428.085z"/>
	</g>
	<g>
		<g>
			<g style="opacity:0.07;">
				<path d="M410.769,181.573H89.231v201.546c0,5.699,4.62,10.318,10.318,10.318h300.902c5.699,0,10.318-4.62,10.318-10.318V181.573
					z"/>
				<path d="M131.007,192.979h-26.116c-3.128,0-5.672,2.544-5.672,5.672v26.116c0,3.128,2.544,5.673,5.672,5.673h26.116
					c3.128,0,5.672-2.545,5.672-5.673v-26.116C136.679,195.524,134.135,192.979,131.007,192.979z"/>
				<path d="M183.827,192.979h-26.116c-3.128,0-5.672,2.544-5.672,5.672v26.116c0,3.128,2.544,5.673,5.672,5.673h26.116
					c3.128,0,5.673-2.545,5.673-5.673v-26.116C189.5,195.524,186.955,192.979,183.827,192.979z"/>
				<path d="M236.648,192.979h-26.116c-3.128,0-5.673,2.544-5.673,5.672v26.116c0,3.128,2.545,5.673,5.673,5.673h26.116
					c3.128,0,5.672-2.545,5.672-5.673v-26.116C242.32,195.524,239.776,192.979,236.648,192.979z"/>
				<path d="M289.469,192.979h-26.116c-3.128,0-5.673,2.544-5.673,5.672v26.116c0,3.128,2.545,5.673,5.673,5.673h26.116
					c3.128,0,5.672-2.545,5.672-5.673v-26.116C295.141,195.524,292.597,192.979,289.469,192.979z"/>
				<path d="M342.289,192.979h-26.116c-3.128,0-5.673,2.544-5.673,5.672v26.116c0,3.128,2.545,5.673,5.673,5.673h26.116
					c3.128,0,5.673-2.545,5.673-5.673v-26.116C347.962,195.524,345.417,192.979,342.289,192.979z"/>
				<path d="M395.109,192.979h-26.116c-3.128,0-5.673,2.544-5.673,5.672v26.116c0,3.128,2.545,5.673,5.673,5.673h26.116
					c3.128,0,5.673-2.545,5.673-5.673v-26.116C400.782,195.524,398.237,192.979,395.109,192.979z"/>
				<path d="M131.007,243.509h-26.116c-3.128,0-5.672,2.545-5.672,5.673v26.116c0,3.128,2.544,5.673,5.672,5.673h26.116
					c3.128,0,5.672-2.545,5.672-5.673v-26.116C136.679,246.054,134.135,243.509,131.007,243.509z"/>
				<path d="M183.827,243.509h-26.116c-3.128,0-5.672,2.545-5.672,5.673v26.116c0,3.128,2.544,5.673,5.672,5.673h26.116
					c3.128,0,5.673-2.545,5.673-5.673v-26.116C189.5,246.054,186.955,243.509,183.827,243.509z"/>
				<path d="M236.648,243.509h-26.116c-3.128,0-5.673,2.545-5.673,5.673v26.116c0,3.128,2.545,5.673,5.673,5.673h26.116
					c3.128,0,5.672-2.545,5.672-5.673v-26.116C242.32,246.054,239.776,243.509,236.648,243.509z"/>
				<path d="M289.469,243.509h-26.116c-3.128,0-5.673,2.545-5.673,5.673v26.116c0,3.128,2.545,5.673,5.673,5.673h26.116
					c3.128,0,5.672-2.545,5.672-5.673v-26.116C295.141,246.054,292.597,243.509,289.469,243.509z"/>
				<path d="M342.289,243.509h-26.116c-3.128,0-5.673,2.545-5.673,5.673v26.116c0,3.128,2.545,5.673,5.673,5.673h26.116
					c3.128,0,5.673-2.545,5.673-5.673v-26.116C347.962,246.054,345.417,243.509,342.289,243.509z"/>
				<path d="M395.109,243.509h-26.116c-3.128,0-5.673,2.545-5.673,5.673v26.116c0,3.128,2.545,5.673,5.673,5.673h26.116
					c3.128,0,5.673-2.545,5.673-5.673v-26.116C400.782,246.054,398.237,243.509,395.109,243.509z"/>
				<path d="M131.007,294.039h-26.116c-3.128,0-5.672,2.545-5.672,5.673v26.116c0,3.128,2.544,5.673,5.672,5.673h26.116
					c3.128,0,5.672-2.545,5.672-5.673v-26.116C136.679,296.584,134.135,294.039,131.007,294.039z"/>
				<path d="M183.827,294.039h-26.116c-3.128,0-5.672,2.545-5.672,5.673v26.116c0,3.128,2.544,5.673,5.672,5.673h26.116
					c3.128,0,5.673-2.545,5.673-5.673v-26.116C189.5,296.584,186.955,294.039,183.827,294.039z"/>
				<path d="M236.648,294.039h-26.116c-3.128,0-5.673,2.545-5.673,5.673v26.116c0,3.128,2.545,5.673,5.673,5.673h26.116
					c3.128,0,5.672-2.545,5.672-5.673v-26.116C242.32,296.584,239.776,294.039,236.648,294.039z"/>
				<path d="M289.469,294.039h-26.116c-3.128,0-5.673,2.545-5.673,5.673v26.116c0,3.128,2.545,5.673,5.673,5.673h26.116
					c3.128,0,5.672-2.545,5.672-5.673v-26.116C295.141,296.584,292.597,294.039,289.469,294.039z"/>
				<path d="M342.289,294.039h-26.116c-3.128,0-5.673,2.545-5.673,5.673v26.116c0,3.128,2.545,5.673,5.673,5.673h26.116
					c3.128,0,5.673-2.545,5.673-5.673v-26.116C347.962,296.584,345.417,294.039,342.289,294.039z"/>
				<path d="M395.109,294.039h-26.116c-3.128,0-5.673,2.545-5.673,5.673v26.116c0,3.128,2.545,5.673,5.673,5.673h26.116
					c3.128,0,5.673-2.545,5.673-5.673v-26.116C400.782,296.584,398.237,294.039,395.109,294.039z"/>
				<path d="M131.007,344.569h-26.116c-3.128,0-5.672,2.545-5.672,5.673v26.116c0,3.128,2.544,5.672,5.672,5.672h26.116
					c3.128,0,5.672-2.544,5.672-5.672v-26.116C136.679,347.114,134.135,344.569,131.007,344.569z"/>
				<path d="M183.827,344.569h-26.116c-3.128,0-5.672,2.545-5.672,5.673v26.116c0,3.128,2.544,5.672,5.672,5.672h26.116
					c3.128,0,5.673-2.544,5.673-5.672v-26.116C189.5,347.114,186.955,344.569,183.827,344.569z"/>
				<path d="M236.648,344.569h-26.116c-3.128,0-5.673,2.545-5.673,5.673v26.116c0,3.128,2.545,5.672,5.673,5.672h26.116
					c3.128,0,5.672-2.544,5.672-5.672v-26.116C242.32,347.114,239.776,344.569,236.648,344.569z"/>
				<path d="M289.469,344.569h-26.116c-3.128,0-5.673,2.545-5.673,5.673v26.116c0,3.128,2.545,5.672,5.673,5.672h26.116
					c3.128,0,5.672-2.544,5.672-5.672v-26.116C295.141,347.114,292.597,344.569,289.469,344.569z"/>
				<path d="M342.289,344.569h-26.116c-3.128,0-5.673,2.545-5.673,5.673v26.116c0,3.128,2.545,5.672,5.673,5.672h26.116
					c3.128,0,5.673-2.544,5.673-5.672v-26.116C347.962,347.114,345.417,344.569,342.289,344.569z"/>
				<path d="M395.109,344.569h-26.116c-3.128,0-5.673,2.545-5.673,5.673v26.116c0,3.128,2.545,5.672,5.673,5.672h26.116
					c3.128,0,5.673-2.544,5.673-5.672v-26.116C400.782,347.114,398.237,344.569,395.109,344.569z"/>
				<path d="M131.007,194.479h-26.116c-2.304,0-4.173,1.868-4.173,4.173v26.116c0,2.304,1.868,4.173,4.173,4.173h26.116
					c2.305,0,4.173-1.868,4.173-4.173v-26.116C135.179,196.347,133.311,194.479,131.007,194.479z"/>
				<path d="M183.827,194.479h-26.116c-2.304,0-4.173,1.868-4.173,4.173v26.116c0,2.304,1.868,4.173,4.173,4.173h26.116
					c2.304,0,4.173-1.868,4.173-4.173v-26.116C188,196.347,186.132,194.479,183.827,194.479z"/>
				<path d="M236.648,194.479h-26.116c-2.304,0-4.173,1.868-4.173,4.173v26.116c0,2.304,1.868,4.173,4.173,4.173h26.116
					c2.304,0,4.173-1.868,4.173-4.173v-26.116C240.82,196.347,238.952,194.479,236.648,194.479z"/>
				<path d="M289.468,194.479h-26.116c-2.304,0-4.172,1.868-4.172,4.173v26.116c0,2.304,1.868,4.173,4.172,4.173h26.116
					c2.304,0,4.173-1.868,4.173-4.173v-26.116C293.641,196.347,291.773,194.479,289.468,194.479z"/>
				<path d="M342.289,194.479h-26.116c-2.304,0-4.172,1.868-4.172,4.173v26.116c0,2.304,1.868,4.173,4.172,4.173h26.116
					c2.304,0,4.173-1.868,4.173-4.173v-26.116C346.461,196.347,344.593,194.479,342.289,194.479z"/>
				<path d="M395.109,194.479h-26.116c-2.305,0-4.173,1.868-4.173,4.173v26.116c0,2.304,1.868,4.173,4.173,4.173h26.116
					c2.304,0,4.173-1.868,4.173-4.173v-26.116C399.282,196.347,397.414,194.479,395.109,194.479z"/>
				<path d="M131.007,245.009h-26.116c-2.304,0-4.173,1.868-4.173,4.173v26.116c0,2.304,1.868,4.173,4.173,4.173h26.116
					c2.305,0,4.173-1.868,4.173-4.173v-26.116C135.179,246.877,133.311,245.009,131.007,245.009z"/>
				<path d="M183.827,245.009h-26.116c-2.304,0-4.173,1.868-4.173,4.173v26.116c0,2.304,1.868,4.173,4.173,4.173h26.116
					c2.304,0,4.173-1.868,4.173-4.173v-26.116C188,246.877,186.132,245.009,183.827,245.009z"/>
				<path d="M236.648,245.009h-26.116c-2.304,0-4.173,1.868-4.173,4.173v26.116c0,2.304,1.868,4.173,4.173,4.173h26.116
					c2.304,0,4.173-1.868,4.173-4.173v-26.116C240.82,246.877,238.952,245.009,236.648,245.009z"/>
				<path d="M289.468,245.009h-26.116c-2.304,0-4.172,1.868-4.172,4.173v26.116c0,2.304,1.868,4.173,4.172,4.173h26.116
					c2.304,0,4.173-1.868,4.173-4.173v-26.116C293.641,246.877,291.773,245.009,289.468,245.009z"/>
				<path d="M342.289,245.009h-26.116c-2.304,0-4.172,1.868-4.172,4.173v26.116c0,2.304,1.868,4.173,4.172,4.173h26.116
					c2.304,0,4.173-1.868,4.173-4.173v-26.116C346.461,246.877,344.593,245.009,342.289,245.009z"/>
				<path d="M395.109,245.009h-26.116c-2.305,0-4.173,1.868-4.173,4.173v26.116c0,2.304,1.868,4.173,4.173,4.173h26.116
					c2.304,0,4.173-1.868,4.173-4.173v-26.116C399.282,246.877,397.414,245.009,395.109,245.009z"/>
				<path d="M131.007,295.539h-26.116c-2.304,0-4.173,1.868-4.173,4.173v26.116c0,2.305,1.868,4.173,4.173,4.173h26.116
					c2.305,0,4.173-1.868,4.173-4.173v-26.116C135.179,297.407,133.311,295.539,131.007,295.539z"/>
				<path d="M183.827,295.539h-26.116c-2.304,0-4.173,1.868-4.173,4.173v26.116c0,2.305,1.868,4.173,4.173,4.173h26.116
					c2.304,0,4.173-1.868,4.173-4.173v-26.116C188,297.407,186.132,295.539,183.827,295.539z"/>
				<path d="M236.648,295.539h-26.116c-2.304,0-4.173,1.868-4.173,4.173v26.116c0,2.305,1.868,4.173,4.173,4.173h26.116
					c2.304,0,4.173-1.868,4.173-4.173v-26.116C240.82,297.407,238.952,295.539,236.648,295.539z"/>
				<path d="M289.468,295.539h-26.116c-2.304,0-4.172,1.868-4.172,4.173v26.116c0,2.305,1.868,4.173,4.172,4.173h26.116
					c2.304,0,4.173-1.868,4.173-4.173v-26.116C293.641,297.407,291.773,295.539,289.468,295.539z"/>
				<path d="M342.289,295.539h-26.116c-2.304,0-4.172,1.868-4.172,4.173v26.116c0,2.305,1.868,4.173,4.172,4.173h26.116
					c2.304,0,4.173-1.868,4.173-4.173v-26.116C346.461,297.407,344.593,295.539,342.289,295.539z"/>
				<path d="M395.109,295.539h-26.116c-2.305,0-4.173,1.868-4.173,4.173v26.116c0,2.305,1.868,4.173,4.173,4.173h26.116
					c2.304,0,4.173-1.868,4.173-4.173v-26.116C399.282,297.407,397.414,295.539,395.109,295.539z"/>
				<path d="M131.007,346.069h-26.116c-2.304,0-4.173,1.868-4.173,4.173v26.116c0,2.304,1.868,4.172,4.173,4.172h26.116
					c2.305,0,4.173-1.868,4.173-4.172v-26.116C135.179,347.938,133.311,346.069,131.007,346.069z"/>
				<path d="M183.827,346.069h-26.116c-2.304,0-4.173,1.868-4.173,4.173v26.116c0,2.304,1.868,4.172,4.173,4.172h26.116
					c2.304,0,4.173-1.868,4.173-4.172v-26.116C188,347.938,186.132,346.069,183.827,346.069z"/>
				<path d="M236.648,346.069h-26.116c-2.304,0-4.173,1.868-4.173,4.173v26.116c0,2.304,1.868,4.172,4.173,4.172h26.116
					c2.304,0,4.173-1.868,4.173-4.172v-26.116C240.82,347.938,238.952,346.069,236.648,346.069z"/>
				<path d="M289.468,346.069h-26.116c-2.304,0-4.172,1.868-4.172,4.173v26.116c0,2.304,1.868,4.172,4.172,4.172h26.116
					c2.304,0,4.173-1.868,4.173-4.172v-26.116C293.641,347.938,291.773,346.069,289.468,346.069z"/>
				<path d="M342.289,346.069h-26.116c-2.304,0-4.172,1.868-4.172,4.173v26.116c0,2.304,1.868,4.172,4.172,4.172h26.116
					c2.304,0,4.173-1.868,4.173-4.172v-26.116C346.461,347.938,344.593,346.069,342.289,346.069z"/>
				<path d="M395.109,346.069h-26.116c-2.305,0-4.173,1.868-4.173,4.173v26.116c0,2.304,1.868,4.172,4.173,4.172h26.116
					c2.304,0,4.173-1.868,4.173-4.172v-26.116C399.282,347.938,397.414,346.069,395.109,346.069z"/>
				<rect x="272.102" y="198.595" width="8.616" height="26.229"/>
				<rect x="263.296" y="207.402" width="26.23" height="8.616"/>
				<path d="M401.844,128.494H98.156c-4.929,0-8.925,3.996-8.925,8.925v44.154h321.538v-44.154
					C410.769,132.49,406.773,128.494,401.844,128.494z M119.358,157.208c-5.172,0-9.365-4.193-9.365-9.365
					c0-5.172,4.193-9.365,9.365-9.365s9.365,4.193,9.365,9.365C128.724,153.015,124.531,157.208,119.358,157.208z M162.906,157.208
					c-5.172,0-9.365-4.193-9.365-9.365c0-5.172,4.193-9.365,9.365-9.365c5.172,0,9.365,4.193,9.365,9.365
					C172.271,153.015,168.078,157.208,162.906,157.208z M206.453,157.208c-5.172,0-9.365-4.193-9.365-9.365
					c0-5.172,4.193-9.365,9.365-9.365c5.172,0,9.365,4.193,9.365,9.365C215.818,153.015,211.625,157.208,206.453,157.208z
					 M250,157.208c-5.172,0-9.365-4.193-9.365-9.365c0-5.172,4.193-9.365,9.365-9.365c5.172,0,9.365,4.193,9.365,9.365
					C259.365,153.015,255.172,157.208,250,157.208z M293.547,157.208c-5.172,0-9.365-4.193-9.365-9.365
					c0-5.172,4.193-9.365,9.365-9.365c5.172,0,9.365,4.193,9.365,9.365C302.912,153.015,298.719,157.208,293.547,157.208z
					 M337.094,157.208c-5.172,0-9.365-4.193-9.365-9.365c0-5.172,4.193-9.365,9.365-9.365c5.172,0,9.365,4.193,9.365,9.365
					C346.46,153.015,342.267,157.208,337.094,157.208z M380.641,157.208c-5.172,0-9.365-4.193-9.365-9.365
					c0-5.172,4.193-9.365,9.365-9.365s9.365,4.193,9.365,9.365C390.007,153.015,385.814,157.208,380.641,157.208z"/>
				<path d="M119.358,152.342c-3.038,0-5.5-2.462-5.5-5.5v-20.779c0-3.038,2.462-5.5,5.5-5.5c3.038,0,5.5,2.462,5.5,5.5v20.779
					C124.858,149.88,122.396,152.342,119.358,152.342z"/>
				<path d="M162.906,152.342c-3.038,0-5.5-2.462-5.5-5.5v-20.779c0-3.038,2.462-5.5,5.5-5.5s5.5,2.462,5.5,5.5v20.779
					C168.406,149.88,165.943,152.342,162.906,152.342z"/>
				<path d="M206.453,152.342c-3.038,0-5.5-2.462-5.5-5.5v-20.779c0-3.038,2.462-5.5,5.5-5.5s5.5,2.462,5.5,5.5v20.779
					C211.953,149.88,209.49,152.342,206.453,152.342z"/>
				<path d="M250,152.342c-3.038,0-5.5-2.462-5.5-5.5v-20.779c0-3.038,2.462-5.5,5.5-5.5c3.037,0,5.5,2.462,5.5,5.5v20.779
					C255.5,149.88,253.037,152.342,250,152.342z"/>
				<path d="M293.547,152.342c-3.037,0-5.5-2.462-5.5-5.5v-20.779c0-3.038,2.463-5.5,5.5-5.5s5.5,2.462,5.5,5.5v20.779
					C299.047,149.88,296.584,152.342,293.547,152.342z"/>
				<path d="M337.095,152.342c-3.037,0-5.5-2.462-5.5-5.5v-20.779c0-3.038,2.463-5.5,5.5-5.5s5.5,2.462,5.5,5.5v20.779
					C342.595,149.88,340.132,152.342,337.095,152.342z"/>
				<path d="M380.642,152.342c-3.037,0-5.5-2.462-5.5-5.5v-20.779c0-3.038,2.463-5.5,5.5-5.5c3.037,0,5.5,2.462,5.5,5.5v20.779
					C386.142,149.88,383.679,152.342,380.642,152.342z"/>
				<path d="M426.002,277.634l-5.291,5.291c-0.503,0.503-0.785,1.184-0.785,1.895v0c0,2.387,2.886,3.583,4.574,1.895l9.081-9.081
					c1.047-1.047,1.047-2.743,0-3.79l-9.081-9.081c-1.688-1.688-4.574-0.493-4.574,1.895l0,0c0,0.711,0.282,1.392,0.785,1.895
					l5.291,5.291C427.049,274.891,427.049,276.588,426.002,277.634z"/>
				<path d="M73.998,273.844l5.291-5.291c0.503-0.503,0.785-1.184,0.785-1.895l0,0c0-2.387-2.886-3.583-4.575-1.895l-9.081,9.081
					c-1.047,1.047-1.047,2.743,0,3.79l9.081,9.081c1.688,1.688,4.575,0.493,4.575-1.895v0c0-0.711-0.282-1.392-0.785-1.895
					l-5.291-5.291C72.951,276.588,72.951,274.891,73.998,273.844z"/>
				<text transform="matrix(1 0 0 1 113.8594 177.5772)" style="font-family:'FredokaOne-Regular'; font-size:19.9343px;">MAY</text>
			</g>
			<g>
				<g>
					<g>
						<path style="fill:#FFFFFF;" d="M410.769,174.573H89.231v201.546c0,5.699,4.62,10.318,10.318,10.318h300.902
							c5.699,0,10.318-4.62,10.318-10.318V174.573z"/>
					</g>
					<g>
						<g>
							<path style="fill:#F7B5BA;" d="M131.007,185.979h-26.116c-3.128,0-5.672,2.544-5.672,5.672v26.116
								c0,3.128,2.544,5.673,5.672,5.673h26.116c3.128,0,5.672-2.545,5.672-5.673v-26.116
								C136.679,188.524,134.135,185.979,131.007,185.979z"/>
							<path style="fill:#F7B5BA;" d="M183.827,185.979h-26.116c-3.128,0-5.672,2.544-5.672,5.672v26.116
								c0,3.128,2.544,5.673,5.672,5.673h26.116c3.128,0,5.673-2.545,5.673-5.673v-26.116
								C189.5,188.524,186.955,185.979,183.827,185.979z"/>
							<path style="fill:#F7B5BA;" d="M236.648,185.979h-26.116c-3.128,0-5.673,2.544-5.673,5.672v26.116
								c0,3.128,2.545,5.673,5.673,5.673h26.116c3.128,0,5.672-2.545,5.672-5.673v-26.116
								C242.32,188.524,239.776,185.979,236.648,185.979z"/>
							<path style="fill:#F7B5BA;" d="M289.469,185.979h-26.116c-3.128,0-5.673,2.544-5.673,5.672v26.116
								c0,3.128,2.545,5.673,5.673,5.673h26.116c3.128,0,5.672-2.545,5.672-5.673v-26.116
								C295.141,188.524,292.597,185.979,289.469,185.979z"/>
							<path style="fill:#F7B5BA;" d="M342.289,185.979h-26.116c-3.128,0-5.673,2.544-5.673,5.672v26.116
								c0,3.128,2.545,5.673,5.673,5.673h26.116c3.128,0,5.673-2.545,5.673-5.673v-26.116
								C347.962,188.524,345.417,185.979,342.289,185.979z"/>
							<path style="fill:#F7B5BA;" d="M395.109,185.979h-26.116c-3.128,0-5.673,2.544-5.673,5.672v26.116
								c0,3.128,2.545,5.673,5.673,5.673h26.116c3.128,0,5.673-2.545,5.673-5.673v-26.116
								C400.782,188.524,398.237,185.979,395.109,185.979z"/>
							<path style="fill:#F7B5BA;" d="M131.007,236.509h-26.116c-3.128,0-5.672,2.545-5.672,5.673v26.116
								c0,3.128,2.544,5.673,5.672,5.673h26.116c3.128,0,5.672-2.545,5.672-5.673v-26.116
								C136.679,239.054,134.135,236.509,131.007,236.509z"/>
							<path style="fill:#F7B5BA;" d="M183.827,236.509h-26.116c-3.128,0-5.672,2.545-5.672,5.673v26.116
								c0,3.128,2.544,5.673,5.672,5.673h26.116c3.128,0,5.673-2.545,5.673-5.673v-26.116
								C189.5,239.054,186.955,236.509,183.827,236.509z"/>
							<path style="fill:#F7B5BA;" d="M236.648,236.509h-26.116c-3.128,0-5.673,2.545-5.673,5.673v26.116
								c0,3.128,2.545,5.673,5.673,5.673h26.116c3.128,0,5.672-2.545,5.672-5.673v-26.116
								C242.32,239.054,239.776,236.509,236.648,236.509z"/>
							<path style="fill:#F7B5BA;" d="M289.469,236.509h-26.116c-3.128,0-5.673,2.545-5.673,5.673v26.116
								c0,3.128,2.545,5.673,5.673,5.673h26.116c3.128,0,5.672-2.545,5.672-5.673v-26.116
								C295.141,239.054,292.597,236.509,289.469,236.509z"/>
							<path style="fill:#F7B5BA;" d="M342.289,236.509h-26.116c-3.128,0-5.673,2.545-5.673,5.673v26.116
								c0,3.128,2.545,5.673,5.673,5.673h26.116c3.128,0,5.673-2.545,5.673-5.673v-26.116
								C347.962,239.054,345.417,236.509,342.289,236.509z"/>
							<path style="fill:#F7B5BA;" d="M395.109,236.509h-26.116c-3.128,0-5.673,2.545-5.673,5.673v26.116
								c0,3.128,2.545,5.673,5.673,5.673h26.116c3.128,0,5.673-2.545,5.673-5.673v-26.116
								C400.782,239.054,398.237,236.509,395.109,236.509z"/>
							<path style="fill:#F7B5BA;" d="M131.007,287.039h-26.116c-3.128,0-5.672,2.545-5.672,5.673v26.116
								c0,3.128,2.544,5.673,5.672,5.673h26.116c3.128,0,5.672-2.545,5.672-5.673v-26.116
								C136.679,289.584,134.135,287.039,131.007,287.039z"/>
							<path style="fill:#F7B5BA;" d="M183.827,287.039h-26.116c-3.128,0-5.672,2.545-5.672,5.673v26.116
								c0,3.128,2.544,5.673,5.672,5.673h26.116c3.128,0,5.673-2.545,5.673-5.673v-26.116
								C189.5,289.584,186.955,287.039,183.827,287.039z"/>
							<path style="fill:#F7B5BA;" d="M236.648,287.039h-26.116c-3.128,0-5.673,2.545-5.673,5.673v26.116
								c0,3.128,2.545,5.673,5.673,5.673h26.116c3.128,0,5.672-2.545,5.672-5.673v-26.116
								C242.32,289.584,239.776,287.039,236.648,287.039z"/>
							<path style="fill:#F7B5BA;" d="M289.469,287.039h-26.116c-3.128,0-5.673,2.545-5.673,5.673v26.116
								c0,3.128,2.545,5.673,5.673,5.673h26.116c3.128,0,5.672-2.545,5.672-5.673v-26.116
								C295.141,289.584,292.597,287.039,289.469,287.039z"/>
							<path style="fill:#F7B5BA;" d="M342.289,287.039h-26.116c-3.128,0-5.673,2.545-5.673,5.673v26.116
								c0,3.128,2.545,5.673,5.673,5.673h26.116c3.128,0,5.673-2.545,5.673-5.673v-26.116
								C347.962,289.584,345.417,287.039,342.289,287.039z"/>
							<path style="fill:#F7B5BA;" d="M395.109,287.039h-26.116c-3.128,0-5.673,2.545-5.673,5.673v26.116
								c0,3.128,2.545,5.673,5.673,5.673h26.116c3.128,0,5.673-2.545,5.673-5.673v-26.116
								C400.782,289.584,398.237,287.039,395.109,287.039z"/>
							<path style="fill:#F7B5BA;" d="M131.007,337.569h-26.116c-3.128,0-5.672,2.545-5.672,5.673v26.116
								c0,3.128,2.544,5.672,5.672,5.672h26.116c3.128,0,5.672-2.544,5.672-5.672v-26.116
								C136.679,340.114,134.135,337.569,131.007,337.569z"/>
							<path style="fill:#F7B5BA;" d="M183.827,337.569h-26.116c-3.128,0-5.672,2.545-5.672,5.673v26.116
								c0,3.128,2.544,5.672,5.672,5.672h26.116c3.128,0,5.673-2.544,5.673-5.672v-26.116
								C189.5,340.114,186.955,337.569,183.827,337.569z"/>
							<path style="fill:#F7B5BA;" d="M236.648,337.569h-26.116c-3.128,0-5.673,2.545-5.673,5.673v26.116
								c0,3.128,2.545,5.672,5.673,5.672h26.116c3.128,0,5.672-2.544,5.672-5.672v-26.116
								C242.32,340.114,239.776,337.569,236.648,337.569z"/>
							<path style="fill:#F7B5BA;" d="M289.469,337.569h-26.116c-3.128,0-5.673,2.545-5.673,5.673v26.116
								c0,3.128,2.545,5.672,5.673,5.672h26.116c3.128,0,5.672-2.544,5.672-5.672v-26.116
								C295.141,340.114,292.597,337.569,289.469,337.569z"/>
							<path style="fill:#F7B5BA;" d="M342.289,337.569h-26.116c-3.128,0-5.673,2.545-5.673,5.673v26.116
								c0,3.128,2.545,5.672,5.673,5.672h26.116c3.128,0,5.673-2.544,5.673-5.672v-26.116
								C347.962,340.114,345.417,337.569,342.289,337.569z"/>
							<path style="fill:#F7B5BA;" d="M395.109,337.569h-26.116c-3.128,0-5.673,2.545-5.673,5.673v26.116
								c0,3.128,2.545,5.672,5.673,5.672h26.116c3.128,0,5.673-2.544,5.673-5.672v-26.116
								C400.782,340.114,398.237,337.569,395.109,337.569z"/>
						</g>
						<g>
							<g>
								<path style="fill:#FFF4D2;" d="M131.007,187.479h-26.116c-2.304,0-4.173,1.868-4.173,4.173v26.116
									c0,2.304,1.868,4.173,4.173,4.173h26.116c2.305,0,4.173-1.868,4.173-4.173v-26.116
									C135.179,189.347,133.311,187.479,131.007,187.479z"/>
								<path style="fill:#FFF4D2;" d="M183.827,187.479h-26.116c-2.304,0-4.173,1.868-4.173,4.173v26.116
									c0,2.304,1.868,4.173,4.173,4.173h26.116c2.304,0,4.173-1.868,4.173-4.173v-26.116
									C188,189.347,186.132,187.479,183.827,187.479z"/>
								<path style="fill:#FFF4D2;" d="M236.648,187.479h-26.116c-2.304,0-4.173,1.868-4.173,4.173v26.116
									c0,2.304,1.868,4.173,4.173,4.173h26.116c2.304,0,4.173-1.868,4.173-4.173v-26.116
									C240.82,189.347,238.952,187.479,236.648,187.479z"/>
								<path style="fill:#F75E70;" d="M289.468,187.479h-26.116c-2.304,0-4.172,1.868-4.172,4.173v26.116
									c0,2.304,1.868,4.173,4.172,4.173h26.116c2.304,0,4.173-1.868,4.173-4.173v-26.116
									C293.641,189.347,291.773,187.479,289.468,187.479z"/>
								<path style="fill:#FFF4D2;" d="M342.289,187.479h-26.116c-2.304,0-4.172,1.868-4.172,4.173v26.116
									c0,2.304,1.868,4.173,4.172,4.173h26.116c2.304,0,4.173-1.868,4.173-4.173v-26.116
									C346.461,189.347,344.593,187.479,342.289,187.479z"/>
								<path style="fill:#ABEDEF;" d="M395.109,187.479h-26.116c-2.305,0-4.173,1.868-4.173,4.173v26.116
									c0,2.304,1.868,4.173,4.173,4.173h26.116c2.304,0,4.173-1.868,4.173-4.173v-26.116
									C399.282,189.347,397.414,187.479,395.109,187.479z"/>
							</g>
							<g>
								<path style="fill:#FFF4D2;" d="M131.007,238.009h-26.116c-2.304,0-4.173,1.868-4.173,4.173v26.116
									c0,2.304,1.868,4.173,4.173,4.173h26.116c2.305,0,4.173-1.868,4.173-4.173v-26.116
									C135.179,239.877,133.311,238.009,131.007,238.009z"/>
								<path style="fill:#FFF4D2;" d="M183.827,238.009h-26.116c-2.304,0-4.173,1.868-4.173,4.173v26.116
									c0,2.304,1.868,4.173,4.173,4.173h26.116c2.304,0,4.173-1.868,4.173-4.173v-26.116
									C188,239.877,186.132,238.009,183.827,238.009z"/>
								<path style="fill:#FFF4D2;" d="M236.648,238.009h-26.116c-2.304,0-4.173,1.868-4.173,4.173v26.116
									c0,2.304,1.868,4.173,4.173,4.173h26.116c2.304,0,4.173-1.868,4.173-4.173v-26.116
									C240.82,239.877,238.952,238.009,236.648,238.009z"/>
								<path style="fill:#FFF4D2;" d="M289.468,238.009h-26.116c-2.304,0-4.172,1.868-4.172,4.173v26.116
									c0,2.304,1.868,4.173,4.172,4.173h26.116c2.304,0,4.173-1.868,4.173-4.173v-26.116
									C293.641,239.877,291.773,238.009,289.468,238.009z"/>
								<path style="fill:#FFF4D2;" d="M342.289,238.009h-26.116c-2.304,0-4.172,1.868-4.172,4.173v26.116
									c0,2.304,1.868,4.173,4.172,4.173h26.116c2.304,0,4.173-1.868,4.173-4.173v-26.116
									C346.461,239.877,344.593,238.009,342.289,238.009z"/>
								<path style="fill:#ABEDEF;" d="M395.109,238.009h-26.116c-2.305,0-4.173,1.868-4.173,4.173v26.116
									c0,2.304,1.868,4.173,4.173,4.173h26.116c2.304,0,4.173-1.868,4.173-4.173v-26.116
									C399.282,239.877,397.414,238.009,395.109,238.009z"/>
							</g>
							<g>
								<path style="fill:#FFF4D2;" d="M131.007,288.539h-26.116c-2.304,0-4.173,1.868-4.173,4.173v26.116
									c0,2.305,1.868,4.173,4.173,4.173h26.116c2.305,0,4.173-1.868,4.173-4.173v-26.116
									C135.179,290.407,133.311,288.539,131.007,288.539z"/>
								<path style="fill:#FFF4D2;" d="M183.827,288.539h-26.116c-2.304,0-4.173,1.868-4.173,4.173v26.116
									c0,2.305,1.868,4.173,4.173,4.173h26.116c2.304,0,4.173-1.868,4.173-4.173v-26.116
									C188,290.407,186.132,288.539,183.827,288.539z"/>
								<path style="fill:#FFF4D2;" d="M236.648,288.539h-26.116c-2.304,0-4.173,1.868-4.173,4.173v26.116
									c0,2.305,1.868,4.173,4.173,4.173h26.116c2.304,0,4.173-1.868,4.173-4.173v-26.116
									C240.82,290.407,238.952,288.539,236.648,288.539z"/>
								<path style="fill:#FFF4D2;" d="M289.468,288.539h-26.116c-2.304,0-4.172,1.868-4.172,4.173v26.116
									c0,2.305,1.868,4.173,4.172,4.173h26.116c2.304,0,4.173-1.868,4.173-4.173v-26.116
									C293.641,290.407,291.773,288.539,289.468,288.539z"/>
								<path style="fill:#FFF4D2;" d="M342.289,288.539h-26.116c-2.304,0-4.172,1.868-4.172,4.173v26.116
									c0,2.305,1.868,4.173,4.172,4.173h26.116c2.304,0,4.173-1.868,4.173-4.173v-26.116
									C346.461,290.407,344.593,288.539,342.289,288.539z"/>
								<path style="fill:#ABEDEF;" d="M395.109,288.539h-26.116c-2.305,0-4.173,1.868-4.173,4.173v26.116
									c0,2.305,1.868,4.173,4.173,4.173h26.116c2.304,0,4.173-1.868,4.173-4.173v-26.116
									C399.282,290.407,397.414,288.539,395.109,288.539z"/>
							</g>
							<g>
								<path style="fill:#FFF4D2;" d="M131.007,339.069h-26.116c-2.304,0-4.173,1.868-4.173,4.173v26.116
									c0,2.304,1.868,4.172,4.173,4.172h26.116c2.305,0,4.173-1.868,4.173-4.172v-26.116
									C135.179,340.938,133.311,339.069,131.007,339.069z"/>
								<path style="fill:#FFF4D2;" d="M183.827,339.069h-26.116c-2.304,0-4.173,1.868-4.173,4.173v26.116
									c0,2.304,1.868,4.172,4.173,4.172h26.116c2.304,0,4.173-1.868,4.173-4.172v-26.116
									C188,340.938,186.132,339.069,183.827,339.069z"/>
								<path style="fill:#FFF4D2;" d="M236.648,339.069h-26.116c-2.304,0-4.173,1.868-4.173,4.173v26.116
									c0,2.304,1.868,4.172,4.173,4.172h26.116c2.304,0,4.173-1.868,4.173-4.172v-26.116
									C240.82,340.938,238.952,339.069,236.648,339.069z"/>
								<path style="fill:#FFF4D2;" d="M289.468,339.069h-26.116c-2.304,0-4.172,1.868-4.172,4.173v26.116
									c0,2.304,1.868,4.172,4.172,4.172h26.116c2.304,0,4.173-1.868,4.173-4.172v-26.116
									C293.641,340.938,291.773,339.069,289.468,339.069z"/>
								<path style="fill:#FFF4D2;" d="M342.289,339.069h-26.116c-2.304,0-4.172,1.868-4.172,4.173v26.116
									c0,2.304,1.868,4.172,4.172,4.172h26.116c2.304,0,4.173-1.868,4.173-4.172v-26.116
									C346.461,340.938,344.593,339.069,342.289,339.069z"/>
								<path style="fill:#ABEDEF;" d="M395.109,339.069h-26.116c-2.305,0-4.173,1.868-4.173,4.173v26.116
									c0,2.304,1.868,4.172,4.173,4.172h26.116c2.304,0,4.173-1.868,4.173-4.172v-26.116
									C399.282,340.938,397.414,339.069,395.109,339.069z"/>
							</g>
						</g>
						<g>
							<rect x="272.102" y="191.595" style="fill:#FFFFFF;" width="8.616" height="26.229"/>
						</g>
						<g>
							<rect x="263.296" y="200.402" style="fill:#FFFFFF;" width="26.23" height="8.616"/>
						</g>
					</g>
					<path style="fill:#F75E70;" d="M401.844,121.494H98.156c-4.929,0-8.925,3.996-8.925,8.925v44.154h321.538v-44.154
						C410.769,125.49,406.773,121.494,401.844,121.494z M119.358,150.208c-5.172,0-9.365-4.193-9.365-9.365
						c0-5.172,4.193-9.365,9.365-9.365s9.365,4.193,9.365,9.365C128.724,146.015,124.531,150.208,119.358,150.208z M162.906,150.208
						c-5.172,0-9.365-4.193-9.365-9.365c0-5.172,4.193-9.365,9.365-9.365c5.172,0,9.365,4.193,9.365,9.365
						C172.271,146.015,168.078,150.208,162.906,150.208z M206.453,150.208c-5.172,0-9.365-4.193-9.365-9.365
						c0-5.172,4.193-9.365,9.365-9.365c5.172,0,9.365,4.193,9.365,9.365C215.818,146.015,211.625,150.208,206.453,150.208z
						 M250,150.208c-5.172,0-9.365-4.193-9.365-9.365c0-5.172,4.193-9.365,9.365-9.365c5.172,0,9.365,4.193,9.365,9.365
						C259.365,146.015,255.172,150.208,250,150.208z M293.547,150.208c-5.172,0-9.365-4.193-9.365-9.365
						c0-5.172,4.193-9.365,9.365-9.365c5.172,0,9.365,4.193,9.365,9.365C302.912,146.015,298.719,150.208,293.547,150.208z
						 M337.094,150.208c-5.172,0-9.365-4.193-9.365-9.365c0-5.172,4.193-9.365,9.365-9.365c5.172,0,9.365,4.193,9.365,9.365
						C346.46,146.015,342.267,150.208,337.094,150.208z M380.641,150.208c-5.172,0-9.365-4.193-9.365-9.365
						c0-5.172,4.193-9.365,9.365-9.365s9.365,4.193,9.365,9.365C390.007,146.015,385.814,150.208,380.641,150.208z"/>
					<g>
						<path style="fill:#4D4963;" d="M119.358,145.342c-3.038,0-5.5-2.462-5.5-5.5v-20.779c0-3.038,2.462-5.5,5.5-5.5
							c3.038,0,5.5,2.462,5.5,5.5v20.779C124.858,142.88,122.396,145.342,119.358,145.342z"/>
					</g>
					<g>
						<path style="fill:#4D4963;" d="M162.906,145.342c-3.038,0-5.5-2.462-5.5-5.5v-20.779c0-3.038,2.462-5.5,5.5-5.5
							s5.5,2.462,5.5,5.5v20.779C168.406,142.88,165.943,145.342,162.906,145.342z"/>
					</g>
					<g>
						<path style="fill:#4D4963;" d="M206.453,145.342c-3.038,0-5.5-2.462-5.5-5.5v-20.779c0-3.038,2.462-5.5,5.5-5.5
							s5.5,2.462,5.5,5.5v20.779C211.953,142.88,209.49,145.342,206.453,145.342z"/>
					</g>
					<g>
						<path style="fill:#4D4963;" d="M250,145.342c-3.038,0-5.5-2.462-5.5-5.5v-20.779c0-3.038,2.462-5.5,5.5-5.5
							c3.037,0,5.5,2.462,5.5,5.5v20.779C255.5,142.88,253.037,145.342,250,145.342z"/>
					</g>
					<g>
						<path style="fill:#4D4963;" d="M293.547,145.342c-3.037,0-5.5-2.462-5.5-5.5v-20.779c0-3.038,2.463-5.5,5.5-5.5
							s5.5,2.462,5.5,5.5v20.779C299.047,142.88,296.584,145.342,293.547,145.342z"/>
					</g>
					<g>
						<path style="fill:#4D4963;" d="M337.095,145.342c-3.037,0-5.5-2.462-5.5-5.5v-20.779c0-3.038,2.463-5.5,5.5-5.5
							s5.5,2.462,5.5,5.5v20.779C342.595,142.88,340.132,145.342,337.095,145.342z"/>
					</g>
					<g>
						<path style="fill:#4D4963;" d="M380.642,145.342c-3.037,0-5.5-2.462-5.5-5.5v-20.779c0-3.038,2.463-5.5,5.5-5.5
							c3.037,0,5.5,2.462,5.5,5.5v20.779C386.142,142.88,383.679,145.342,380.642,145.342z"/>
					</g>
					<g>
						<path style="fill:#4D4963;" d="M426.002,270.634l-5.291,5.291c-0.503,0.503-0.785,1.184-0.785,1.895v0
							c0,2.387,2.886,3.583,4.574,1.895l9.081-9.081c1.047-1.047,1.047-2.743,0-3.79l-9.081-9.081
							c-1.688-1.688-4.574-0.493-4.574,1.895l0,0c0,0.711,0.282,1.392,0.785,1.895l5.291,5.291
							C427.049,267.891,427.049,269.588,426.002,270.634z"/>
						<path style="fill:#4D4963;" d="M73.998,266.844l5.291-5.291c0.503-0.503,0.785-1.184,0.785-1.895l0,0
							c0-2.387-2.886-3.583-4.575-1.895l-9.081,9.081c-1.047,1.047-1.047,2.743,0,3.79l9.081,9.081
							c1.688,1.688,4.575,0.493,4.575-1.895v0c0-0.711-0.282-1.392-0.785-1.895l-5.291-5.291
							C72.951,269.588,72.951,267.891,73.998,266.844z"/>
					</g>
					
						<text transform="matrix(1 0 0 1 113.8594 170.5772)" style="fill:#4D4963; font-family:'FredokaOne-Regular'; font-size:19.9343px;">MAY</text>
				</g>
			</g>
		</g>
		<g>
			<g style="opacity:0.07;">
				<path d="M322.723,157.896c-14.158,0-25.676,11.518-25.676,25.676c0,14.158,11.518,25.677,25.676,25.677
					c14.158,0,25.677-11.518,25.677-25.677C348.4,169.415,336.882,157.896,322.723,157.896z M322.723,206.576
					c-12.683,0-23.002-10.319-23.002-23.003c0-12.683,10.319-23.003,23.002-23.003c12.683,0,23.003,10.319,23.003,23.003
					C345.726,196.257,335.407,206.576,322.723,206.576z"/>
				<path d="M322.723,206.576c-12.683,0-23.002-10.319-23.002-23.003c0-12.683,10.319-23.003,23.002-23.003
					c12.683,0,23.003,10.319,23.003,23.003C345.726,196.257,335.407,206.576,322.723,206.576z"/>
				<path d="M322.723,165.575c1.012,0,1.832-0.82,1.832-1.832c0-1.012-0.82-1.832-1.832-1.832c-1.012,0-1.832,0.82-1.832,1.832
					C320.891,164.755,321.711,165.575,322.723,165.575z"/>
				<circle cx="322.723" cy="203.403" r="1.832"/>
				<path d="M342.553,181.741c-1.012,0-1.832,0.82-1.832,1.832s0.82,1.832,1.832,1.832c1.012,0,1.832-0.82,1.832-1.832
					S343.565,181.741,342.553,181.741z"/>
				<path d="M302.893,181.741c-1.012,0-1.832,0.82-1.832,1.832s0.82,1.832,1.832,1.832s1.832-0.82,1.832-1.832
					S303.905,181.741,302.893,181.741z"/>
				<path d="M333.232,182.236h-9.172v-13.826c0-0.739-0.598-1.337-1.337-1.337c-0.739,0-1.337,0.598-1.337,1.337v15.162
					c0,0.738,0.598,1.337,1.337,1.337h10.509c0.739,0,1.337-0.599,1.337-1.337C334.569,182.835,333.971,182.236,333.232,182.236z"/>
			</g>
			<g>
				<g>
					<path style="fill:#ABEDEF;" d="M322.723,150.896c-14.158,0-25.676,11.518-25.676,25.676c0,14.158,11.518,25.677,25.676,25.677
						c14.158,0,25.677-11.518,25.677-25.677C348.4,162.415,336.882,150.896,322.723,150.896z M322.723,199.576
						c-12.683,0-23.002-10.319-23.002-23.003c0-12.683,10.319-23.003,23.002-23.003c12.683,0,23.003,10.319,23.003,23.003
						C345.726,189.257,335.407,199.576,322.723,199.576z"/>
					<path style="fill:#4D4963;" d="M322.723,199.576c-12.683,0-23.002-10.319-23.002-23.003c0-12.683,10.319-23.003,23.002-23.003
						c12.683,0,23.003,10.319,23.003,23.003C345.726,189.257,335.407,199.576,322.723,199.576z"/>
					<path style="fill:#ABEDEF;" d="M322.723,158.575c1.012,0,1.832-0.82,1.832-1.832c0-1.012-0.82-1.832-1.832-1.832
						c-1.012,0-1.832,0.82-1.832,1.832C320.891,157.755,321.711,158.575,322.723,158.575z"/>
					<circle style="fill:#ABEDEF;" cx="322.723" cy="196.403" r="1.832"/>
					<path style="fill:#ABEDEF;" d="M342.553,174.741c-1.012,0-1.832,0.82-1.832,1.832s0.82,1.832,1.832,1.832
						c1.012,0,1.832-0.82,1.832-1.832S343.565,174.741,342.553,174.741z"/>
					<path style="fill:#ABEDEF;" d="M302.893,174.741c-1.012,0-1.832,0.82-1.832,1.832s0.82,1.832,1.832,1.832
						s1.832-0.82,1.832-1.832S303.905,174.741,302.893,174.741z"/>
					<path style="fill:#ABEDEF;" d="M333.232,175.236h-9.172v-13.826c0-0.739-0.598-1.337-1.337-1.337
						c-0.739,0-1.337,0.598-1.337,1.337v15.162c0,0.738,0.598,1.337,1.337,1.337h10.509c0.739,0,1.337-0.599,1.337-1.337
						C334.569,175.835,333.971,175.236,333.232,175.236z"/>
				</g>
			</g>
		</g>
	</g>
	<g>
		<path style="fill:#4D4963;" d="M224.569,209.824c0.527-1.813,0.574-3.523-0.376-5.225c-1.19-2.132-3.224-2.811-5.158-1.228
			c-0.538,0.44-1.041,0.924-1.536,1.42c0.039-0.46-0.005-0.918-0.208-1.306c-0.389-0.745-1.496-0.96-2.228-0.738
			c-1.488,0.451-2.21,2.253-2.373,3.828c-3.514-0.231-7.525,0.977-9.872,2.547c-2.47,1.652-3.814,4.786-2.892,7.25
			c-0.733-0.051-1.488,0.069-2.225,0.412c-2.654,1.235-2.789,4.072-2.572,6.668c0.405,4.839,2.273,9.802,5.719,13.351
			c3.321,3.42,9.98,6.683,14.328,3.2c0.573-0.459,1.034-1.04,1.366-1.695c2.996-5.925,2.942-14.63,2.421-21.401
			c0.966,0,1.816-0.208,2.76-0.428c2.445-0.571,5.246-2.497,5.74-5.138C227.859,209.22,225.838,209.668,224.569,209.824z"/>
		<path style="fill:#D3AA8C;" d="M225.236,223.499c-0.163-3.556-0.438-6.474-2.244-9.607c-0.087-0.151-0.275-0.25-0.45-0.202
			c-2.312,0.639-5.788,3.41-4.204,6.146c0.198,0.341,0.472,0.644,0.595,1.018c0.148,0.448,0.058,0.945-0.133,1.376
			c-0.191,0.431-0.477,0.812-0.74,1.203c-0.31,0.461,0.097,1.066,0.232,1.544c0.183,0.65,0.329,1.311,0.4,1.984
			c0.056,0.532-0.013,1.2-0.509,1.4c-0.488,0.197-1.014-0.236-1.239-0.711c-0.312-0.657-0.362-1.173-0.939-1.634
			c-0.477-0.381-0.981-0.824-1.629-0.802c-2.888,0.096-1.697,4.548-1.058,5.99c0.4,0.9,0.935,2.96,1.989,3.251
			c0.495,0.137,1.035-0.075,1.111,0.634c0.088,0.826-0.831,1.683-1.373,2.2c-4.379,4.177-10.103,2.556-10.103,2.556
			c0.718,0.609,1.135,2.216,1.312,3.148c0.552,2.902,0.068,5.966-0.347,8.85c-0.082,0.567,0.516,1.158,1.065,1.144
			c2.915-0.076,7.311,0.227,7.504-3.224c1.37-2.542,2.242-5.239,5.29-6.383c0.98-0.368,1.887,0.063,2.96-0.469
			c2.188-1.087,3.48-3.866,3.768-6.148C227.04,232.452,225.435,227.826,225.236,223.499z"/>
		<path style="fill:#D3AA8C;" d="M188,279.262c0.342,0.627-1.134,12.946-0.949,17.331c0.184,4.385,2.908,21.938,2.45,26.1
			c-0.459,4.163-2.018,7.629,1.351,8.34s3.688-0.213,5.386-1.98s1.513-51.919,1.513-51.919L188,279.262z"/>
		<path style="fill:#8FDBDB;" d="M201.148,321.441h-8.097c0,0-2.612,9.539,0.728,24.786c3.34,15.247,0.276,82.719,0.276,82.719h10.6
			c0,0,7.308-39.278,9.445-66.86L201.148,321.441z"/>
		<path style="fill:#4D4963;" d="M194.044,428.945h27.613c0,0-0.274-4.826-5.819-6.058c-5.545-1.232-6.983,0-9.584-1.985
			c-2.601-1.985-11.864-0.226-11.864-0.226L194.044,428.945z"/>
		<path style="fill:#ABEDEF;" d="M201.148,321.441c0,0-2.129,19.38,5.099,31.582c7.228,12.201,14.724,75.923,14.724,75.923h10.278
			l-0.175-107.504H201.148z"/>
		<path style="fill:#E25267;" d="M206.221,246.226c-0.016-0.032-0.036-0.059-0.06-0.08c-0.47-0.414-0.926-0.466-1.441-0.334
			c-3.188,0.819-6.267,2.559-7.991,4.335c-2.314,2.384-3.921,5.643-5.322,8.613c-2.481,5.26-4.326,10.97-5.087,16.747
			c-0.181,1.375-0.3,2.759-0.356,4.146c-0.074,1.83,2.525,1.97,3.806,1.961c1.442-0.01,2.913-0.324,4.36-0.446
			c1.631-0.137,3.261-0.274,4.891-0.411c0.37-0.031,0.747-0.064,1.088-0.21c0.84-0.358,0.918-1.115,0.365-1.757
			c0.177,0.205,2.227-2.306,2.383-2.54c0.717-1.072,1.263-2.252,1.698-3.463c1.733-4.822,1.945-10.154,1.951-15.229
			c0.003-2.404-0.077-4.806-0.158-7.209c-0.033-0.979-0.068-1.957-0.085-2.937C206.261,247.156,206.36,246.501,206.221,246.226z"/>
		<path style="fill:#F75E70;" d="M233.043,326.561c-1.135-7.207-0.884-14.755-1.062-22.04c-0.404-16.616,2.71-34.404-4.61-50.093
			c-1.459-3.127-3.679-5.68-5.894-8.287c-0.248-0.292-0.505-0.591-0.843-0.773c-0.357-0.192-0.773-0.234-1.177-0.271
			c-5.804-0.526-13.401-1.388-18.286,2.605c-2.537,2.074-4.691,4.754-6.08,7.794c-1.857,4.066-3.183,8.645-3.814,13.1
			c-0.789,5.582,0.072,10.772,0.321,16.313c0.551,12.279,0.382,24.589-0.463,36.845c-0.205,2.967-1.275,7.331,1.9,8.339
			c12.891,4.093,26.86,4.562,39.133-1.411c0.323-0.157,0.667-0.342,0.839-0.71c0.188-0.404,0.115-0.91,0.042-1.37
			C233.048,326.589,233.046,326.575,233.043,326.561z"/>
		<path style="fill:#D3AA8C;" d="M266.619,224.188c-0.361-0.341-0.664-0.692-0.751-1.097c-0.041-0.191,0.071-0.378,0.178-0.541
			c0.669-1.02,1.339-2.04,2.008-3.06c0.402-0.612,1.004-2.054-0.268-2.181c-2.804-0.279-5.205,3.922-6.618,5.819
			c-2.308,3.096-4.343,6.494-6.823,9.447c-3.849,4.696-7.256,9.607-10.672,14.6c-0.245,0.359-0.504,0.727-0.875,0.953
			c-1.139,0.692-3.075,0.404-4.334,0.413c-1.794,0.013-4.427-0.585-6.105,0.077c-1.597,0.615-2.785,3.127-3.5,4.586
			c-0.965,1.971,0.071,4.331,0.837,6.179c0.018,0.044,0.051,0.07,0.073,0.109c-0.03,0.369,0.241,0.79,0.681,0.836
			c5.187,0.531,14.558,1.231,18.041-3.601c2.651-3.677,4.488-8.197,6.897-12.056c2.472-3.961,5.127-7.795,7.894-11.554
			c2.216,0.506,4.518-2.425,5.02-4.273c0.262-0.964,0.217-2.124-0.223-3.084C267.81,225.169,267.152,224.691,266.619,224.188z"/>
		<path style="fill:#E25267;" d="M242.438,249.741c0.037-1.015-0.082-1.874-0.474-2.343c-0.743-0.888-2.415-0.511-3.39-0.499
			c-7.982,0.104-15.728-1.827-23.667-2.182c-0.948-0.042-1.999-0.007-2.692,0.641c-0.481,0.45-0.692,1.116-0.825,1.761
			c-0.553,2.696,0.181,5.957,2.33,7.792c2.875,2.455,6.778,3.514,10.258,4.812c3.763,1.404,7.785,2.112,11.802,2.07
			c3.116-0.033,4.626-2.91,5.372-5.547C241.488,255.064,242.355,252.014,242.438,249.741z"/>
		<path style="fill:#4D4963;" d="M220.971,428.945h24.76c0,0,1.576-3.761-3.969-4.994c-5.545-1.232-5.819,0.231-8.42-1.754
			c-2.601-1.985-13.217,0-13.217,0L220.971,428.945z"/>
	</g>
	<g>
		<path style="fill:#4D4963;" d="M452.449,428.945H47.551c-3.558,0-6.442,2.884-6.442,6.442l0,0c0,3.558,2.884,6.442,6.442,6.442
			h404.898c3.558,0,6.442-2.884,6.442-6.442l0,0C458.891,431.829,456.007,428.945,452.449,428.945z"/>
		<g>
			<g>
				<g>
					<path style="fill:#4D4963;" d="M405.981,354.261c0,0-26.651,30.407-23.327,74.684h-3.117c0,0-5.292-45.057,27.796-77.689
						L405.981,354.261z"/>
					<g>
						<path style="fill:#F75E70;" d="M406.662,368.867c5.226,9.707,16.096,13.355,25.871,16.72c3.759,1.294,7.87,2.177,11.888,2.107
							c1.657-0.029,2.042-0.844,2.291-2.338c0.187-1.121,0.292-2.253,0.353-3.388c0.492-9.035-2.917-18.045-9.475-24.313
							c-7.464-7.134-20.604-11.77-30.257-6.398c-1.277,0.711-1.903,1.759-2.281,2.97C403.52,359.126,404.246,364.38,406.662,368.867
							z"/>
						<path style="fill:#E25267;" d="M407.333,351.257c0.764-0.425,1.555-0.766,2.358-1.07c2.564,1.26,5.049,2.814,7.413,4.484
							c5.801,0.65,11.681,2.127,16.839,4.859c0.903,0.478,0.109,1.8-0.795,1.361c-3.992-1.937-8.082-2.713-12.275-3.439
							c1.244,0.957,2.461,1.91,3.612,2.816c3.935,3.099,7.415,6.345,10.478,9.925c2.234,0.224,4.435,0.618,6.578,1.37
							c0.948,0.332,0.551,1.841-0.419,1.52c-1.543-0.51-3.106-0.846-4.687-1.074c2.63,3.328,4.937,6.939,6.892,11.017
							c0.154,0.32-0.221,0.629-0.495,0.382c-4.482-4.044-8.538-8.417-12.848-12.544c0.757,2.593,1.033,5.384,1.104,7.863
							c0.022,0.783-1.243,0.986-1.393,0.188c-0.808-4.284-2.885-8.005-4.192-12.053c-1.157-0.975-2.286-1.975-3.522-2.877
							c-2.201-1.605-4.473-3.038-6.766-4.417c1.705,3.747,2.013,8.538,1.762,12.121c-0.042,0.602-0.931,0.615-0.946,0
							c-0.078-3.16-0.639-6.183-1.827-9.113c-0.697-1.719-1.706-3.334-2.451-5.036c-2.18-1.247-4.369-2.469-6.545-3.724
							C405.599,352.784,406.205,351.885,407.333,351.257z"/>
					</g>
				</g>
				<g>
					<path style="fill:#4D4963;" d="M360.972,358.157c0,0,25.261,28.821,22.109,70.788h2.954c0,0,2.315-41.584-24.857-71.903
						L360.972,358.157z"/>
					<path style="fill:#F75E70;" d="M361.362,356.777c-7.633-0.934-18.78-0.893-25.336,3.929c-1.978,1.455-3.284,3.451-4.481,5.552
						c-2.385,4.185-4.293,8.613-6.38,12.948c-0.433,0.9-0.837,1.807-1.253,2.715c-0.087,0.19-1.723,3.93-1.152,3.934
						c2.979,0.022,6.591-0.406,8.958-2.384c2.21-1.847,3.245-3.968,6.18-5.139c2.457-0.98,5.225-1.263,7.764-1.993
						c3.436-0.989,6.966-2.444,9.508-5.05c1.954-2.003,3.179-4.556,4.242-7.111c0.409-0.982,0.805-1.969,1.19-2.961
						c0.179-0.463,0.357-0.925,0.55-1.383c0.101-0.24,0.202-0.48,0.295-0.724c0.079-0.207,0.245-0.508,0.245-0.731
						c0.106-0.385,0.294-1.132-0.035-1.465C361.576,356.834,361.473,356.791,361.362,356.777z"/>
					<path style="fill:#E25267;" d="M361.656,356.914c-0.079-0.08-0.182-0.123-0.293-0.137c-0.708-0.087-1.454-0.161-2.216-0.228
						c-1.817,0.254-3.631,0.53-5.433,0.863c-0.644-0.155-1.273-0.414-1.956-0.419c-1.075-0.008-2.169,0.147-3.237,0.253
						c-0.147,0.015-0.154,0.235,0,0.234c1.123-0.006,2.293-0.076,3.406,0.086c0.155,0.023,0.303,0.064,0.453,0.101
						c-2.311,0.459-4.601,0.991-6.849,1.642c-2.488-0.192-5.083,0.516-7.418,1.304c-0.255,0.086-0.15,0.485,0.112,0.407
						c1.587-0.472,3.183-0.708,4.789-0.932c-7.422,2.609-10.937,9.583-14.597,16.15c-0.12,0.215,0.185,0.381,0.324,0.189
						c2.381-3.286,4.576-6.867,7.16-9.992c1.368-1.654,2.857-2.852,4.471-3.763c-1.545,2.22-2.273,5.626-2.669,7.705
						c-0.022,0.117,0.154,0.169,0.181,0.05c0.678-3.017,2.15-6.8,4.694-8.807c1.885-0.75,3.925-1.241,6.131-1.681
						c0.968-0.193,1.952-0.354,2.944-0.498c-1.636,1.294-2.882,2.983-3.074,5.163c-0.013,0.152,0.217,0.147,0.234,0
						c0.315-2.593,2.008-4.12,4.002-5.326c2.957-0.39,5.978-0.663,8.933-1.137C361.846,357.739,361.928,357.19,361.656,356.914z"/>
				</g>
				<g>
					<path style="fill:#4D4963;" d="M394.23,402.475c0,0-9.495,10.834-8.311,26.609h-1.111c0,0-0.87-15.631,9.343-27.028
						L394.23,402.475z"/>
					<path style="fill:#F75E70;" d="M393.973,402.008c-0.124,0.125-0.053,0.406-0.013,0.551c0,0.084,0.062,0.197,0.092,0.275
						c0.035,0.091,0.073,0.182,0.111,0.272c0.072,0.172,0.139,0.346,0.207,0.52c0.145,0.373,0.294,0.744,0.447,1.113
						c0.4,0.96,0.86,1.92,1.595,2.673c0.956,0.98,2.282,1.527,3.574,1.898c0.954,0.275,1.995,0.381,2.918,0.749
						c1.103,0.44,1.492,1.238,2.323,1.932c0.889,0.743,2.247,0.904,3.367,0.896c0.215-0.001-0.4-1.408-0.433-1.479
						c-0.157-0.341-0.308-0.682-0.471-1.02c-0.785-1.63-1.502-3.294-2.398-4.867c-0.45-0.79-0.941-1.54-1.684-2.087
						c-2.464-1.813-6.654-1.828-9.524-1.477C394.042,401.962,394.003,401.978,393.973,402.008z"/>
					<path style="fill:#E25267;" d="M393.973,402.008c0.03-0.03,0.069-0.046,0.11-0.051c0.266-0.033,0.546-0.061,0.833-0.086
						c0.683,0.096,1.365,0.199,2.042,0.324c0.242-0.058,0.478-0.156,0.735-0.158c0.404-0.003,0.815,0.055,1.217,0.095
						c0.055,0.005,0.058,0.088,0,0.088c-0.422-0.002-0.862-0.029-1.28,0.032c-0.058,0.008-0.114,0.024-0.17,0.038
						c0.869,0.173,1.729,0.373,2.574,0.617c0.935-0.072,1.911,0.194,2.788,0.49c0.096,0.032,0.057,0.182-0.042,0.153
						c-0.597-0.177-1.197-0.266-1.8-0.35c2.79,0.981,4.111,3.602,5.487,6.071c0.045,0.081-0.069,0.143-0.122,0.071
						c-0.895-1.235-1.72-2.581-2.691-3.756c-0.514-0.622-1.074-1.072-1.681-1.415c0.581,0.834,0.854,2.115,1.003,2.896
						c0.008,0.044-0.058,0.063-0.068,0.019c-0.255-1.134-0.808-2.556-1.764-3.311c-0.709-0.282-1.475-0.467-2.305-0.632
						c-0.364-0.073-0.734-0.133-1.107-0.187c0.615,0.486,1.083,1.121,1.155,1.941c0.005,0.057-0.081,0.055-0.088,0
						c-0.118-0.975-0.755-1.548-1.504-2.002c-1.112-0.147-2.247-0.249-3.358-0.427C393.902,402.318,393.871,402.112,393.973,402.008
						z"/>
				</g>
				<g>
					<path style="fill:#4D4963;" d="M400.107,376.303c0,0-18.785,21.433-16.442,52.642h-2.197c0,0-3.73-31.759,19.592-54.76
						L400.107,376.303z"/>
					<g>
						<path style="fill:#F75E70;" d="M396.125,384.538c0.005,7.77,5.536,13.663,10.482,19.015c1.902,2.058,4.16,3.978,6.677,5.276
							c1.039,0.535,1.549,0.158,2.203-0.687c0.49-0.634,0.933-1.302,1.35-1.985c3.321-5.446,4.211-12.177,2.232-18.257
							c-2.253-6.92-8.864-14.184-16.65-14.07c-1.03,0.015-1.768,0.457-2.407,1.083C397.425,377.442,396.123,380.946,396.125,384.538
							z"/>
						<path style="fill:#E25267;" d="M402.419,373.829c0.616-0.009,1.221,0.043,1.821,0.123c1.171,1.638,2.195,3.432,3.106,5.258
							c3.385,2.34,6.542,5.219,8.833,8.636c0.401,0.599-0.533,1.154-0.948,0.579c-1.832-2.535-4.112-4.381-6.473-6.231
							c0.453,1.009,0.89,2.007,1.302,2.954c1.409,3.237,2.486,6.414,3.193,9.659c1.312,0.884,2.547,1.864,3.627,3.046
							c0.478,0.523-0.272,1.327-0.767,0.804c-0.787-0.832-1.646-1.562-2.551-2.231c0.522,2.944,0.749,5.956,0.602,9.14
							c-0.011,0.25-0.347,0.317-0.435,0.072c-1.433-4.006-2.492-8.075-3.79-12.075c-0.395,1.863-1.155,3.688-1.939,5.25
							c-0.248,0.494-1.101,0.198-0.928-0.348c0.928-2.929,0.88-5.933,1.42-8.882c-0.393-0.991-0.76-1.989-1.227-2.962
							c-0.831-1.731-1.763-3.379-2.727-5c-0.192,2.896-1.599,5.972-2.951,8.114c-0.227,0.36-0.783,0.071-0.587-0.316
							c1.006-1.988,1.667-4.052,1.907-6.268c0.141-1.3,0.053-2.639,0.159-3.944c-0.937-1.501-1.888-2.991-2.821-4.496
							C400.832,374.199,401.509,373.842,402.419,373.829z"/>
					</g>
				</g>
				<g>
					<path style="fill:#4D4963;" d="M366.121,388.548c0,0,14.416,16.447,12.617,40.397h1.686c0,0,2.862-24.372-15.035-42.022
						L366.121,388.548z"/>
					<g>
						<path style="fill:#F75E70;" d="M366.194,387.48c-0.49-0.48-1.057-0.819-1.847-0.831c-5.975-0.087-11.048,5.487-12.777,10.797
							c-1.519,4.666-0.836,9.831,1.712,14.01c0.32,0.525,0.66,1.037,1.036,1.524c0.502,0.648,0.894,0.938,1.69,0.527
							c1.932-0.996,3.665-2.469,5.124-4.048c3.795-4.107,8.04-8.629,8.044-14.592C369.178,392.111,368.179,389.423,366.194,387.48z"
							/>
						<path style="fill:#E25267;" d="M364.347,386.65c-0.473-0.007-0.937,0.033-1.397,0.094c-0.899,1.257-1.685,2.634-2.384,4.035
							c-2.597,1.795-5.021,4.005-6.778,6.627c-0.308,0.459,0.409,0.885,0.728,0.445c1.406-1.945,3.156-3.362,4.968-4.782
							c-0.347,0.775-0.683,1.54-1,2.267c-1.081,2.484-1.908,4.922-2.45,7.412c-1.007,0.679-1.954,1.43-2.783,2.337
							c-0.366,0.401,0.209,1.018,0.589,0.617c0.604-0.638,1.263-1.198,1.958-1.712c-0.401,2.259-0.575,4.57-0.462,7.014
							c0.009,0.192,0.266,0.243,0.334,0.055c1.1-3.074,1.912-6.197,2.909-9.266c0.303,1.429,0.887,2.83,1.488,4.029
							c0.19,0.379,0.845,0.152,0.712-0.267c-0.712-2.248-0.676-4.553-1.089-6.816c0.301-0.761,0.583-1.526,0.941-2.273
							c0.638-1.328,1.353-2.593,2.092-3.837c0.147,2.222,1.227,4.583,2.265,6.226c0.174,0.276,0.601,0.055,0.451-0.242
							c-0.772-1.526-1.279-3.109-1.464-4.81c-0.108-0.997-0.041-2.025-0.122-3.027c0.719-1.152,1.449-2.295,2.164-3.45
							C365.564,386.934,365.045,386.66,364.347,386.65z"/>
					</g>
				</g>
			</g>
			<g>
				<g>
					<path style="fill:#4D4963;" d="M99.042,368.283c0,0,21.647,24.698,18.947,60.663h2.532c0,0,4.298-36.598-22.577-63.103
						L99.042,368.283z"/>
					<g>
						<path style="fill:#F75E70;" d="M99.797,368.255c-0.307-0.983-0.815-1.835-1.853-2.412c-7.841-4.363-18.514-0.598-24.576,5.197
							c-5.327,5.091-8.095,12.409-7.696,19.748c0.05,0.921,0.135,1.841,0.287,2.752c0.202,1.214,0.515,1.876,1.861,1.899
							c3.263,0.057,6.603-0.66,9.656-1.711c7.94-2.733,16.769-5.697,21.014-13.581C100.451,376.502,101.041,372.235,99.797,368.255z
							"/>
						<path style="fill:#E25267;" d="M97.944,365.843c-0.62-0.345-1.263-0.622-1.915-0.869c-2.082,1.023-4.101,2.286-6.021,3.642
							c-4.712,0.528-9.488,1.728-13.677,3.947c-0.734,0.389-0.089,1.462,0.646,1.105c3.242-1.574,6.564-2.204,9.97-2.793
							c-1.01,0.778-1.999,1.551-2.934,2.288c-3.196,2.517-6.023,5.154-8.511,8.062c-1.814,0.182-3.602,0.502-5.343,1.113
							c-0.77,0.27-0.448,1.495,0.34,1.234c1.253-0.415,2.523-0.687,3.807-0.872c-2.136,2.703-4.01,5.636-5.598,8.948
							c-0.125,0.26,0.179,0.511,0.402,0.31c3.641-3.284,6.935-6.837,10.436-10.188c-0.615,2.106-0.839,4.373-0.896,6.387
							c-0.018,0.636,1.009,0.801,1.131,0.153c0.656-3.48,2.343-6.502,3.405-9.79c0.939-0.792,1.856-1.604,2.861-2.337
							c1.788-1.303,3.633-2.467,5.495-3.588c-1.385,3.044-1.635,6.935-1.431,9.846c0.034,0.489,0.756,0.499,0.768,0
							c0.063-2.567,0.519-5.022,1.484-7.402c0.566-1.396,1.386-2.708,1.991-4.09c1.77-1.013,3.548-2.005,5.316-3.025
							C99.352,367.083,98.86,366.353,97.944,365.843z"/>
					</g>
				</g>
				<g>
					<path style="fill:#4D4963;" d="M139.028,358.157c0,0-25.261,28.821-22.109,70.788h-2.954c0,0-2.315-41.584,24.857-71.903
						L139.028,358.157z"/>
					<path style="fill:#F75E70;" d="M138.344,356.914c-0.329,0.333-0.141,1.08-0.035,1.465c0,0.223,0.166,0.524,0.245,0.731
						c0.093,0.243,0.194,0.483,0.295,0.724c0.192,0.458,0.37,0.92,0.55,1.383c0.385,0.992,0.781,1.979,1.19,2.961
						c1.063,2.555,2.288,5.107,4.242,7.111c2.542,2.606,6.072,4.061,9.508,5.05c2.539,0.731,5.307,1.013,7.764,1.993
						c2.935,1.171,3.97,3.292,6.18,5.139c2.367,1.978,5.979,2.406,8.958,2.384c0.571-0.004-1.065-3.745-1.152-3.934
						c-0.416-0.908-0.82-1.815-1.253-2.715c-2.088-4.335-3.995-8.764-6.38-12.948c-1.197-2.101-2.503-4.097-4.481-5.552
						c-6.556-4.822-17.703-4.863-25.336-3.929C138.527,356.791,138.424,356.834,138.344,356.914z"/>
					<path style="fill:#E25267;" d="M138.344,356.914c0.079-0.08,0.183-0.123,0.294-0.137c0.708-0.087,1.454-0.161,2.215-0.228
						c1.817,0.254,3.631,0.53,5.433,0.863c0.644-0.155,1.273-0.414,1.956-0.419c1.075-0.008,2.169,0.147,3.237,0.253
						c0.147,0.015,0.154,0.235,0,0.234c-1.123-0.006-2.293-0.076-3.406,0.086c-0.155,0.023-0.303,0.064-0.453,0.101
						c2.311,0.459,4.601,0.991,6.849,1.642c2.488-0.192,5.083,0.516,7.418,1.304c0.255,0.086,0.15,0.485-0.112,0.407
						c-1.587-0.472-3.183-0.708-4.789-0.932c7.422,2.609,10.937,9.583,14.597,16.15c0.12,0.215-0.185,0.381-0.324,0.189
						c-2.381-3.286-4.576-6.867-7.16-9.992c-1.368-1.654-2.857-2.852-4.471-3.763c1.545,2.22,2.273,5.626,2.669,7.705
						c0.022,0.117-0.154,0.169-0.181,0.05c-0.678-3.017-2.15-6.8-4.694-8.807c-1.885-0.75-3.925-1.241-6.131-1.681
						c-0.968-0.193-1.952-0.354-2.944-0.498c1.636,1.294,2.882,2.983,3.074,5.163c0.013,0.152-0.217,0.147-0.234,0
						c-0.315-2.593-2.008-4.12-4.002-5.326c-2.957-0.39-5.978-0.663-8.933-1.137C138.154,357.739,138.072,357.19,138.344,356.914z"
						/>
				</g>
				<g>
					<path style="fill:#4D4963;" d="M102.922,394.308c0,0,12.36,14.102,10.818,34.637h1.446c0,0,1.133-20.347-12.163-35.183
						L102.922,394.308z"/>
					<path style="fill:#F75E70;" d="M103.113,393.633c-3.735-0.457-9.189-0.437-12.397,1.923c-0.968,0.712-1.607,1.689-2.192,2.716
						c-1.167,2.048-2.1,4.215-3.122,6.336c-0.212,0.44-0.41,0.884-0.613,1.328c-0.043,0.093-0.843,1.923-0.563,1.925
						c1.458,0.011,3.225-0.199,4.383-1.167c1.081-0.904,1.588-1.942,3.024-2.515c1.202-0.48,2.557-0.618,3.799-0.975
						c1.681-0.484,3.408-1.196,4.652-2.471c0.956-0.98,1.556-2.229,2.076-3.479c0.2-0.48,0.394-0.964,0.582-1.449
						c0.088-0.227,0.175-0.453,0.269-0.677c0.049-0.118,0.099-0.235,0.144-0.354c0.039-0.101,0.12-0.249,0.12-0.358
						c0.052-0.188,0.144-0.554-0.017-0.717C103.217,393.661,103.167,393.64,103.113,393.633z"/>
					<path style="fill:#E25267;" d="M103.256,393.7c-0.039-0.039-0.089-0.06-0.144-0.067c-0.346-0.042-0.711-0.079-1.084-0.111
						c-0.889,0.124-1.777,0.259-2.659,0.422c-0.315-0.076-0.623-0.203-0.957-0.205c-0.526-0.004-1.061,0.072-1.584,0.124
						c-0.072,0.007-0.075,0.115,0,0.115c0.549-0.003,1.122-0.037,1.666,0.042c0.076,0.011,0.148,0.031,0.222,0.05
						c-1.131,0.225-2.251,0.485-3.351,0.804c-1.218-0.094-2.487,0.252-3.63,0.638c-0.125,0.042-0.074,0.237,0.055,0.199
						c0.776-0.231,1.557-0.346,2.343-0.456c-3.632,1.277-5.351,4.689-7.142,7.902c-0.059,0.105,0.09,0.186,0.159,0.093
						c1.165-1.608,2.239-3.36,3.503-4.889c0.669-0.81,1.398-1.395,2.188-1.841c-0.756,1.086-1.112,2.753-1.306,3.77
						c-0.011,0.057,0.075,0.083,0.088,0.024c0.332-1.476,1.052-3.327,2.297-4.31c0.923-0.367,1.921-0.607,3-0.823
						c0.474-0.095,0.955-0.173,1.44-0.244c-0.8,0.633-1.41,1.46-1.504,2.527c-0.007,0.074,0.106,0.072,0.115,0
						c0.154-1.269,0.983-2.016,1.958-2.606c1.447-0.191,2.925-0.325,4.371-0.556C103.349,394.104,103.39,393.835,103.256,393.7z"/>
				</g>
				<g>
					<path style="fill:#4D4963;" d="M130.905,388.548c0,0-14.416,16.447-12.617,40.397h-1.686c0,0-2.863-24.372,15.035-42.022
						L130.905,388.548z"/>
					<g>
						<path style="fill:#F75E70;" d="M127.849,394.867c0.004,5.963,4.248,10.485,8.044,14.592c1.46,1.579,3.192,3.053,5.124,4.048
							c0.797,0.411,1.189,0.121,1.69-0.527c0.376-0.486,0.716-0.999,1.036-1.524c2.548-4.179,3.231-9.344,1.712-14.01
							c-1.729-5.31-6.802-10.884-12.777-10.797c-0.791,0.012-1.357,0.351-1.847,0.831
							C128.847,389.423,127.847,392.111,127.849,394.867z"/>
						<path style="fill:#E25267;" d="M132.679,386.65c0.473-0.007,0.937,0.033,1.397,0.094c0.899,1.257,1.685,2.634,2.384,4.035
							c2.597,1.795,5.02,4.005,6.778,6.627c0.308,0.459-0.409,0.885-0.727,0.445c-1.406-1.945-3.156-3.362-4.968-4.782
							c0.347,0.775,0.683,1.54,0.999,2.267c1.081,2.484,1.908,4.922,2.451,7.412c1.007,0.679,1.955,1.43,2.783,2.337
							c0.367,0.401-0.209,1.018-0.589,0.617c-0.604-0.638-1.263-1.198-1.958-1.712c0.401,2.259,0.575,4.57,0.462,7.014
							c-0.009,0.192-0.266,0.243-0.334,0.055c-1.1-3.074-1.912-6.197-2.909-9.266c-0.303,1.429-0.887,2.83-1.488,4.029
							c-0.19,0.379-0.845,0.152-0.712-0.267c0.712-2.248,0.675-4.553,1.089-6.816c-0.301-0.761-0.583-1.526-0.942-2.273
							c-0.638-1.328-1.353-2.593-2.092-3.837c-0.147,2.222-1.227,4.583-2.265,6.226c-0.174,0.276-0.601,0.055-0.451-0.242
							c0.772-1.526,1.279-3.109,1.464-4.81c0.108-0.997,0.041-2.025,0.122-3.027c-0.719-1.152-1.449-2.295-2.164-3.45
							C131.462,386.934,131.981,386.66,132.679,386.65z"/>
					</g>
				</g>
			</g>
		</g>
	</g>
	<g>
		<circle style="fill:none;stroke:#ABEDEF;stroke-width:2;stroke-miterlimit:10;" cx="430.844" cy="159.944" r="9.048"/>
		
			<ellipse transform="matrix(0.973 -0.2306 0.2306 0.973 -13.4744 37.4727)" style="fill:none;stroke:#ABEDEF;stroke-width:2;stroke-miterlimit:10;" cx="153.54" cy="76.369" rx="9.048" ry="9.048"/>
		
			<ellipse transform="matrix(0.7071 -0.7071 0.7071 0.7071 -145.7666 114.7512)" style="fill:none;stroke:#ABEDEF;stroke-width:2;stroke-miterlimit:10;" cx="65.634" cy="233.331" rx="9.048" ry="9.048"/>
		<path style="fill:none;stroke:#ABEDEF;stroke-width:2;stroke-miterlimit:10;" d="M366.085,101.185
			c0-2.207-1.789-3.996-3.996-3.996c-2.207,0-3.996,1.789-3.996,3.996c0,2.207,1.789,3.996,3.996,3.996
			C364.296,105.18,366.085,103.392,366.085,101.185z"/>
		<circle style="fill:none;stroke:#ABEDEF;stroke-width:2;stroke-miterlimit:10;" cx="434.366" cy="185.979" r="3.996"/>
		<circle style="fill:none;stroke:#ABEDEF;stroke-width:2;stroke-miterlimit:10;" cx="45.105" cy="174.573" r="3.996"/>
		<circle style="fill:#ABEDEF;" cx="341.954" cy="85.447" r="3.996"/>
		<circle style="fill:#ABEDEF;" cx="195.059" cy="89.32" r="3.996"/>
		<circle style="fill:#ABEDEF;" cx="69.63" cy="209.018" r="3.996"/>
		<circle style="fill:none;stroke:#ABEDEF;stroke-width:2;stroke-miterlimit:10;" cx="375.206" cy="88.233" r="6.782"/>
		<path style="fill:none;stroke:#ABEDEF;stroke-width:2;stroke-miterlimit:10;" d="M184.142,96.102c0-3.745-3.036-6.782-6.782-6.782
			c-3.745,0-6.782,3.036-6.782,6.782c0,3.746,3.036,6.782,6.782,6.782C181.106,102.884,184.142,99.848,184.142,96.102z"/>
	</g>
</g>
</svg>
